<?xml version="1.0" encoding="UTF-8"?><svg id="Artwork" xmlns="http://www.w3.org/2000/svg" viewBox="0 0 379.76 193.06"><path d="m350.87,61.69c-1.11,0-1.81.4-6.04.4,1.71-4.33,3.22-7.45,3.22-8.86,0-2.92-5.54-7.35-9.77-7.35-1.91,0-2.81.71-2.81,1.61,0,2.52-2.32,8.16-4.94,14.6-1.41,0-2.62.1-3.62,1.01-1.31,1.21-3.03,5.13-3.03,6.35,0,1.3,2.02,1.3,3.03,1.3,0,3.12-7.66,17.33-7.66,21.75,0,3.62,6.55,4.84,11.18,4.84,1.62,0,2.02-.91,2.02-2.42,0-3.83,6.25-18.63,8.86-24.07,8.16,0,10.57-4.33,10.57-8.05,0-.71-.3-1.11-1-1.11Zm-24.07,39.38c-.81,0-2.21,1.11-5.34,1.11-6.14,0-9.36-3.93-9.36-8.96,0-9.77,8.26-18.73,8.26-25.58,0-4.03-2.62-6.64-7.66-6.64-9.06,0-15.81,7.35-16.21,7.35s-.8-7.35-9.77-7.35c-1.92,0-2.82.71-2.82,1.71,0,8.05-9.17,22.56-9.17,29.81,0,3.62,6.54,4.84,11.28,4.84,1.61,0,1.91-.91,1.91-2.42,0-4.33,4.13-13.1,7.65-18.63,2.93-4.53,6.25-6.75,7.76-6.75,1.11,0,1.62.71,1.62,1.61,0,4.03-9.17,14.3-9.17,26.08,0,8.16,6.75,13.7,15.21,13.7,10.77,0,17.11-6.65,17.11-8.67,0-.71-.6-1.21-1.3-1.21Zm-49.35-32.73c0-2.31-6.24-7.35-14.91-7.35-16.41,0-29.71,14.2-29.71,27.29,0,5.64,3.22,9.07,8.36,9.07,9.16,0,14.3-5.64,15.51-5.64.71,0,3.93,5.64,12.09,5.64,1.01,0,1.51-.51,1.51-1.21,0-1.21-.71-1.51-.71-4.53,0-12.38,7.86-21.34,7.86-23.26Zm-28.2,19.34c-1.21,0-1.81-.81-1.81-1.82,0-6.54,8.16-18.12,14.3-18.12.8,0,1.21.4,1.21,1.3,0,2.22-8.36,18.64-13.7,18.64Zm-17.51-26.69c-6.86,0-11.89,6.45-12.29,6.45s-.3-6.45-9.27-6.45c-1.91,0-2.82.71-2.82,1.71,0,8.05-9.26,22.56-9.26,29.81,0,3.62,6.54,4.84,11.27,4.84,1.62,0,1.91-.91,1.91-2.42,0-3.22,3.73-13.6,7.05-18.93,1.71-2.82,3.53-3.93,4.63-3.93,2.42,0,2.31,3.62,2.82,5.23.2.81.61,1.21,1.61,1.21,2.93,0,9.47-7.15,9.47-12.39,0-3.32-2.02-5.13-5.13-5.13Zm-43.21-.1c-4.94,0-8.46,3.32-8.86,3.32-.2,0-.3-.1-.3-.2,0-.3,7.25-16.51,7.25-19.64,0-2.92-4.53-7.35-9.77-7.35-1.91,0-2.81.71-2.81,1.71,0,7.95-19.44,46.53-19.44,53.77,0,2.02,3.33,4.84,4.84,4.84,1.91,0,4.94-3.73,5.94-3.73.71,0,2.62,3.93,8.96,3.93,12.49,0,23.77-13.1,23.77-26.89,0-6.04-3.32-9.77-9.57-9.77Zm-16.42,27.69c-.9,0-1.61-.5-1.61-1.71,0-4.43,8.16-18.02,12.28-18.02,1.01,0,1.81.71,1.81,1.91,0,6.45-7.05,17.83-12.49,17.83Zm-13.79-47.53c-4.94,0-8.86,4.84-8.86,10.07,0,3.62,3.12,5.94,6.65,5.94,4.63,0,8.56-4.84,8.56-9.97,0-3.72-2.72-6.04-6.35-6.04Zm-11.99,19.94c-1.91,0-2.81.71-2.81,1.71,0,8.05-10.08,22.56-10.08,29.81,0,3.62,6.55,4.84,11.28,4.84,1.61,0,1.91-.91,1.91-2.42,0-7.66,9.47-20.75,9.47-26.59,0-2.81-3.73-7.35-9.77-7.35Zm-11.98-29.21c-1,0-1.61.4-1.61,1.81,0,22.76-20.25,54.09-28.4,54.09-1.12,0-2.02-.91-2.02-2.22,0-7.04,12.49-32.02,12.49-44.81,0-6.65-5.54-10.68-12.29-10.68-14.19,0-32.93,9.47-32.93,23.26,0,8.46,9.97,13.19,14.81,13.19,1.11,0,1.61-.4,1.61-1.01,0-1.11-2.52-2.52-2.52-8.86,0-9.37,10.48-18.13,15.51-18.13,1.11,0,1.71.6,1.71,1.81,0,11.78-13.89,35.35-13.89,45.21,0,7.15,7.15,11.99,14.3,11.99,16.01,0,45.31-39.48,45.31-55.79,0-4.33-8.86-9.87-12.09-9.87Z" style="fill:#f72585;"/><path d="m336.41,160.45c2.32,0,3.53,2.41,4.03,4.53.3,1.41.5,2.02,1.61,2.02,2.52,0,8.26-4.13,8.26-6.75,0-3.53-4.73-7.55-12.99-7.55-10.27,0-18.43,4.53-18.43,11.27,0,7.56,12.29,8.46,12.29,14.91,0,1.11-.91,1.91-2.12,1.91-2.21,0-4.53-2.41-5.24-5.84-.2-.8-.6-1.41-2.01-1.41-3.43,0-9.37,4.44-9.37,7.36,0,2.71,5.44,8.05,15.71,8.05,11.78,0,17.63-4.94,17.63-11.88,0-7.65-11.68-9.27-11.68-14.4,0-1.31.9-2.21,2.31-2.21Zm-13.28-24.38c0-2.81-5.54-7.35-9.77-7.35-1.91,0-2.82.71-2.82,1.71,0,3.53-4.03,13.6-8.26,23.66-.1.2-.3.3-.5.3-.3,0-2.82-1.71-6.75-1.71-12.09,0-26.08,13.8-26.08,27.29,0,5.64,3.73,9.07,8.77,9.07,8.26,0,14.3-5.64,15.6-5.64.71,0,3.93,5.64,11.99,5.64,1.01,0,1.51-.51,1.51-1.21,0-1.21-.71-1.51-.71-4.94,0-5.84,3.93-13.89,7.45-21.95,4.83-10.98,9.57-21.95,9.57-24.88Zm-38.27,43.91c-1.12,0-1.71-.8-1.71-1.81,0-6.54,7.75-18.13,13.9-18.13,1.01,0,1.61.41,1.61,1.52,0,2.71-8.66,18.43-13.79,18.43Zm-14.2-47.23c-4.94,0-8.86,4.84-8.86,10.07,0,3.62,3.12,5.94,6.65,5.94,4.63,0,8.56-4.84,8.56-9.97,0-3.72-2.72-6.04-6.35-6.04Zm-11.98,19.94c-1.92,0-2.82.71-2.82,1.71,0,8.05-10.07,22.56-10.07,29.81,0,3.62,6.54,4.84,11.27,4.84,1.62,0,1.92-.91,1.92-2.42,0-7.66,9.46-20.75,9.46-26.59,0-2.81-3.72-7.35-9.77-7.35Zm-10.17,7.35c0-2.31-6.25-7.35-14.91-7.35-16.42,0-29.71,14.2-29.71,27.29,0,5.64,3.22,9.07,8.36,9.07,9.17,0,14.3-5.64,15.51-5.64.71,0,3.93,5.64,12.08,5.64,1.01,0,1.52-.51,1.52-1.21,0-1.21-.71-1.51-.71-4.53,0-12.39,7.86-21.35,7.86-23.27Zm-28.2,19.34c-1.21,0-1.81-.81-1.81-1.82,0-6.54,8.16-18.12,14.3-18.12.8,0,1.21.4,1.21,1.3,0,2.22-8.36,18.64-13.69,18.64Zm-8.96-45.72c0-5.94-9.06-11.89-13.39-11.89-.71,0-1.21.61-1.91,1.82-11.18,19.13-22.97,37.46-29.41,48.74,1.11-7.55,1.81-12.59,1.81-26.18,0-11.59-5.23-24.48-22.16-24.48-15.3,0-29.4,10.58-29.4,23.26,0,8.46,9.97,13.19,14.81,13.19.8,0,1.61-.4,1.61-1.01,0-1.11-2.52-2.52-2.52-8.86,0-9.37,9.67-18.13,14.6-18.13,1.01,0,1.81.61,1.81,1.51,0,12.09-12.39,44.01-24.47,44.01-6.25,0-8.86-4.83-10.08-4.83-.71,0-1.11.5-1.11,1.11,0,3.72,4.63,17.12,16.62,17.12,12.59,0,19.94-27.3,25.08-47.64.3,1.31.5,3.12.5,5.34,0,11.08-4.12,30.72-4.12,34.34,0,4.44,8.45,8.06,12.79,8.06.7,0,2.01-.61,2.81-2.12,5.03-9.16,17.81-30.59,26.28-41.57-.3.81-9.96,26.68-9.96,33.92,0,6.34,11.38,12.69,15.51,12.69,1.52,0,2.22-.61,2.22-1.62,0-1.11-1.92-2.31-1.92-7.85,0-15.51,14-44.01,14-48.94Z" style="fill:#f72585;"/><polygon points="377.9 50.75 375.74 57.12 379.76 62.51 373.04 62.43 369.15 67.92 367.16 61.5 360.73 59.5 366.22 55.62 366.14 48.89 371.53 52.91 377.9 50.75" style="fill:#f72585;"/><polygon points="359.04 19.59 356.88 25.96 360.91 31.36 354.18 31.27 350.29 36.76 348.3 30.34 341.87 28.34 347.36 24.46 347.28 17.73 352.67 21.75 359.04 19.59" style="fill:#f72585;"/><polygon points="322.41 39.11 316.37 42.09 315.41 48.75 310.71 43.93 304.08 45.07 307.21 39.11 304.08 33.16 310.71 34.3 315.41 29.48 316.37 36.14 322.41 39.11" style="fill:#f72585;"/><path d="m63.12,63.19s-.16.08-.43.21" style="fill:#f72585;"/><path d="m17.87,75.11c.1.2,3.37,6.43,9.66,9.18,6.39,2.8,6.39,5.59,6.39,5.59,0,0,4.79-3.99,2.4-7.59-2.4-3.6-3.2-8.39-7.99-11.98,0,0,3.2,6.39-.4,8.39-3.54,1.97-9.86-3.42-10.06-3.59Z" style="fill:#f72585;"/><path d="m80.62,15.66l-17.88,8.06s-2.13.67-1.18,2.93c.04.1.21.53.57.79.93.69,2.25-.42,2.59-.69,1.63-1.3,7.68-4.67,16.89-9.57l-.99-1.52Z" style="fill:#f72585;"/><path d="m5.49,163.79s-.4,2-.8,2.4c0,0,1.71.6,4.28,1.2.06.02.12.03.19.04,2.6.6,6.02,1.21,9.47,1.23h0c3.65.04,7.32-.57,10.05-2.48,0,0,1.57-16.38,3.17-21.17,1.6-4.79,4.79-27.96,3.2-31.96,0,0,.41-3.81.74-8.19,0,0-16.73,10.07-22.12,3.54-2.98,5.23-5.79,18.28-5.79,26.22,0,1.3-.13,2.84-.36,4.5-1.29,9.56-5.64,23.46-5.64,23.46,0,0,1.6,1.6,3.6,1.2Z" style="fill:#f72585;"/><path d="m4.17,91.73s4.52,1.75,8.11.55c0,0,.8-.8,2,2,1.2,2.8,3.2,8.79,0,13.18-.2.28-.4.59-.6.94,5.39,6.54,22.12-3.54,22.12-3.54.41-5.33.72-11.48.06-12.58,0,0,3.6-3.6.8-9.99-1.39-3.18-2.17-4.73-1.37-7.08.4-1.2,1.19-2.02,1.77-2.5v-1.2c.4-2.8-1.1-8.98-1.1-8.98h0c-.5-.29-1.24-.44-2.09.2-1.6,1.2-6.79,6.79-8.79,5.19.4.4.4,2.4.4,2.4,4.79,3.6,5.59,8.39,7.99,11.98,2.4,3.6-2.4,7.59-2.4,7.59,0,0,0-2.8-6.39-5.59-6.29-2.75-9.56-8.99-9.66-9.18h0s-1.92-2-1.92-2c-3.2.4-3.6,2-3.6,2-3.99,3.6-4.79,7.19-4.79,9.59,0,2.4-.52,7.04-.52,7.04Z" style="fill:#f72585;"/><path d="m13.08,73.11l1.92,2h0c.2.18,6.53,5.56,10.06,3.6,3.6-2,.4-8.39.4-8.39,0,0,0-2-.4-2.4-2-1.6-.8-3.6.8-4.39,1.6-.8,4.39-1.6,2.4-3.2-2-1.6-1.6-5.19-1.6-5.19,0,0-4.79-2.8-5.19-4.39-.4-1.6-4.39-2-4.39-2h0c-.21.22-.95,1.04-1,2.3-.04,1.02.41,1.81.81,2.3.27.34.53.55.58.59-.25,1.06-.49,2.13-.74,3.2-.15.67-.31,1.33-.46,2-.27-.06-2.09-.46-2.8.4-.75.91-.2,3.17,2.03,5.06,0,0,.54.34.88,1.05.05.11.1.22.14.34.41,1.25-.15,2.32-.25,2.5,0,0,0,4.23-3.2,4.63Z" style="fill:#f72585;"/><path d="m2.37,86.66c1.93,1.22,1.8,5.07,1.8,5.07,0,0,.52-4.64.52-7.04,0-2.4.8-5.99,4.79-9.59,0,0-1.6-7.19-2.8-9.59-1.2-2.4.8-3.99,1.6-3.6s3.21,7.93,7.99,6.56c.1-.18.66-1.25.25-2.5-.04-.12-.09-.24-.14-.34-.34-.71-.88-1.05-.88-1.05-2.24-1.89-2.78-4.15-2.03-5.06.7-.85,2.52-.46,2.8-.4.15-.67.31-1.33.46-2,.25-1.07.49-2.13.74-3.2-.06-.04-.31-.25-.58-.59-.41-.5-.85-1.28-.81-2.3.04-1.26.79-2.08,1-2.29h0s-9.19.79-9.59,10.78c0,0-5.99,2.4-4.39,12.38,0,0,.26,1.87-.27,2.53-.93,1.17.23,2.12.27,3.46.03.84-.12,1.76-.4,3.6-.52,3.35-.92,4.24-.33,5.17Z" style="fill:#f72585;"/><path d="m15,75.11c.1.2,3.37,6.43,9.66,9.18,6.39,2.8,6.39,5.59,6.39,5.59,0,0,4.79-3.99,2.4-7.59-2.4-3.6-3.2-8.39-7.99-11.98,0,0,3.2,6.39-.4,8.39-3.54,1.97-9.86-3.42-10.06-3.59Z" style="fill:#fff;"/><path d="m93,20.62s.24,1.05.36,1.58c.1.44.4,1,.82.86.11-.04.2-.12.29-.21.8-.8-.44-6.31,1.82-2.84,1.03,1.59.72-3.89,2.05-5.23.68-.69,1.62-1.08,2.38-1.7s1.34-1.66.95-2.55c-1.38-.29-2.21,2.11-3.68,1.69-.41-.11-.72-.44-.88-.84-.32-.83-.05-1.66.24-2.44.24-.62.5-1.26.5-1.93,0-.64-.26-1.27-.7-1.74-.18-.18-.39-.35-.65-.37-.55-.05-.91.53-1.19,1.01s-.81.99-1.3.73c-.36-.19-.41-.72-.23-1.09s.52-.63.81-.92c.68-.69,1.1-1.57,1.52-2.44.22-.46.44-.94.34-1.46-.06-.3-.25-.58-.54-.68-.55-.2-1.05.27-1.44.68-1,1.04-2.16,1.94-3.43,2.64-.19.1-.45.19-.59.04-.07-.08-.08-.18-.09-.29-.06-.77.1-1.56.47-2.25.06-.11.12-.22.12-.34,0-.3-.4-.47-.68-.36s-.47.38-.63.63c-.39.59-.87,1.19-1.56,1.36-.68.17-1.56-.36-1.43-1.06.04-.23.18-.47.09-.69-.09-.22-.38-.29-.61-.25-.65.12-1.02.82-1.21,1.46s-.33,1.35-.85,1.77c-.08.06-.18.12-.27.09-.13-.03-.17-.18-.21-.3-.19-.58-.67-1.05-1.25-1.24-.14-.05-.3-.07-.42.02-.12.09-.13.26-.13.41.04.66.35,1.26.49,1.91.14.64.04,1.43-.53,1.77-.08.05-.21.08-.26,0s.47-.13.35-1.15c-.22-1.73-1.64-3.25-3.38-3.51-.32-.05-.67.02-.92.23-.5.42-.33.98-.06,1.4.49.76,1.28,1.29,1.78,2.04.68,1.04.69,2.48.02,3.53-.44.69-1.12,1.19-1.7,1.77-1.56,1.57-2.37,4.1-1.35,6.06.62,1.18,1.82,2,3.12,2.3s2.68.11,3.93-.36c.25-.09.49-.2.76-.2.28,0,.54.1.79.22,1.68.82,2.9,2.33,4.28,3.59.3.27.8.52,1.06.21.17-.21.08-.52-.01-.77-.19-.5-.38-.99-.58-1.49-.06-.15-.11-.32-.03-.45.15-.26.65-.17.77.1,1.64,3.53,2.12.63,2.66,1.08h0Z" style="fill:#f72585;"/><path d="m35.95,62.52s1.5,6.19,1.1,8.98c.93-1.02,1.87-2.08,2.8-3.2,4.18-5.02,7.44-10.06,9.99-14.78l6.79-13.18s2.8-6.39,3.99-6.79c0,0,1.2-.8.8-1.2,0,0,1.6.4,1.6-4.79,0,0,.8-.8,1.6.4.8,1.2,1.2-.4.4-1.2-.38-.38-.93-.72-1.49-.91l-.51.91-1.6-.4,2.05-3.6c-1.98,1.27-6.28,5.01-5.25,6.39,1.2,1.6-3,7.25-3,7.25,0,0-9.39,12.72-10.99,16.71,0,0-7.19,8.39-7.59,9.99,0,0-.26-.35-.7-.6h0Z" style="fill:#f72585;"/><path d="m3.89,131.03s1.2-1.2.8,2.79c0,0-.4,2,1.2-.8,1.59-2.8-1.2-8.39-1.2-8.39,0,0-.4-5.59.8-8.39,1.2-2.79,6.79-22.77,6.79-23.97-3.6,1.2-8.11-.54-8.11-.54l-.28,8.53s-2.4,2.4-2.4,13.58-1.19,15.18-1.19,15.18c0,0-2.4,7.19,6.39,9.99,0,0-4.39-5.99-2.8-7.99ZM64.21,22.37c-.17.06-.42.2-.74.4l-.47.82-1.55,2.72-.03.05h.05s1.55.4,1.55.4l.08-.14.43-.76h0c-.62-.21-1.22-.23-1.57.12.78-.96,1.7-2.14,2.17-2.89.31-.52.41-.82.1-.72Z" style="fill:#f72585;"/><path d="m11.42,167.79c.07.42.15.83.23,1.23v.02s2.45,8.58,2.45,8.58h0c.24.6.39.92.39.92v3.12c-.76,0-1.01,1.54-1.1,2.54-.04.49-.04.86-.04.86,0,0,0,.19,2.87,3.13.67.69,1.5,1.52,2.52,2.54,5.39,5.39,7.66-.28,7.66-.28,0,0-5.96-4.26-5.67-5.96s-2.27-5.96-2.27-5.96l-.29-9.87h-.02s0,0,0,0c-2.45-.02-4.88-.45-6.73-.88Z" style="fill:#f72585;"/><path d="m5.41,178.25s3.69,5.11,3.69,8.8c0,3.69,6.53,1.7,6.53,1.7,0,0,.47-.1.6-.56-2.87-2.94-2.87-3.13-2.87-3.13,0,0,0-.37.04-.86-.11-.09-.21-.18-.32-.28,0,0-1.06-5.79,1.03-6.3h0s-2.44-8.59-2.44-8.59v-.02c-.08-.4-.16-.81-.23-1.23-.05,0-.09-.02-.13-.03,0,0-1.06,7.37-2.76,8.51-1.7,1.13-2.27.57-3.12,1.99Z" style="fill:#f72585;"/></svg>